<?xml version="1.0" encoding="utf-8"?>
<!-- Generator: Adobe Illustrator 24.2.0, SVG Export Plug-In . SVG Version: 6.00 Build 0)  -->
<svg version="1.1" xmlns="http://www.w3.org/2000/svg" xmlns:xlink="http://www.w3.org/1999/xlink" x="0px" y="0px"
	 viewBox="0 0 72.628 89.24" style="enable-background:new 0 0 72.628 89.24;" xml:space="preserve">
<style type="text/css">
	.st0{fill:#FFFFFF;}
	.st1{font-family:'Avenir-Medium';}
	.st2{font-size:9.8541px;}
</style>
<g id="Arte">
	<g>
		<g>
			<path d="M36.314,5.423c-14.66,0-26.59,11.93-26.59,26.59c0,4.59,1.17,8.9,3.22,12.68l-1.53,14.37l12.6-3.48
				c3.68,1.93,7.87,3.02,12.3,3.02c14.66,0,26.59-11.92,26.59-26.59C62.904,17.353,50.974,5.423,36.314,5.423z M36.314,56.413
				c-3.81,0-7.42-0.88-10.63-2.45c-0.72-0.34-2.15-0.53-2.15-0.53l-2.14,0.59l-7.45,2.06l0.89-8.42l0.16-1.47
				c0,0,0.4-1.62,0.03-2.29c-1.98-3.52-3.1-7.57-3.1-11.89c0-13.45,10.94-24.39,24.39-24.39c13.45,0,24.39,10.94,24.39,24.39
				S49.764,56.413,36.314,56.413z"/>
		</g>
		<g>
			<path d="M28.944,26.411c0-1.308,0.223-2.448,0.668-3.424c0.445-0.975,1.051-1.721,1.817-2.239
				c0.766-0.519,1.563-0.894,2.392-1.125c0.829-0.23,1.699-0.346,2.612-0.346c1.273,0,2.442,0.217,3.508,0.65
				s1.955,1.13,2.671,2.088s1.073,2.119,1.073,3.482c0,0.699-0.093,1.35-0.278,1.953c-0.187,0.603-0.479,1.155-0.879,1.656
				c-0.4,0.502-0.759,0.904-1.074,1.209c-0.315,0.304-0.755,0.693-1.318,1.166c-0.823,0.677-1.397,1.173-1.725,1.488
				s-0.598,0.721-0.812,1.217s-0.321,1.094-0.321,1.792v1.133h-2.873v-1.657c0-0.631,0.087-1.211,0.262-1.741
				c0.175-0.529,0.468-1.033,0.879-1.513c0.411-0.479,0.77-0.859,1.073-1.141c0.305-0.282,0.75-0.66,1.336-1.133
				c0.519-0.439,0.907-0.778,1.166-1.015c0.26-0.236,0.535-0.535,0.829-0.896c0.293-0.361,0.495-0.725,0.608-1.091
				c0.112-0.366,0.169-0.797,0.169-1.293c0-1.285-0.42-2.251-1.26-2.899s-1.896-0.973-3.17-0.973c-1.477,0-2.606,0.435-3.39,1.302
				c-0.783,0.868-1.175,1.984-1.175,3.348H28.944z M33.525,42.843c0-0.698,0.239-1.29,0.719-1.774
				c0.479-0.484,1.057-0.728,1.732-0.728c0.474,0,0.905,0.107,1.294,0.321c0.389,0.215,0.693,0.514,0.913,0.896
				s0.329,0.812,0.329,1.284c0,0.699-0.245,1.285-0.735,1.759s-1.09,0.71-1.801,0.71c-0.676,0-1.254-0.236-1.732-0.71
				C33.764,44.128,33.525,43.542,33.525,42.843z"/>
		</g>
	</g>
</g>
<g id="Tipografía">
	<text transform="matrix(1 0 0 1 11.128 71.9717)"><tspan x="0" y="0" class="st1 st2">PLANTEAR</tspan><tspan x="-1.276" y="11.825" class="st1 st2">PREGUNTA</tspan></text>
</g>
</svg>
