<?xml version="1.0" encoding="utf-8"?>
<!-- Generator: Adobe Illustrator 24.2.0, SVG Export Plug-In . SVG Version: 6.00 Build 0)  -->
<svg version="1.1" xmlns="http://www.w3.org/2000/svg" xmlns:xlink="http://www.w3.org/1999/xlink" x="0px" y="0px"
	 viewBox="0 0 72.628 89.24" style="enable-background:new 0 0 72.628 89.24;" xml:space="preserve">
<style type="text/css">
	.st0{fill:#FFFFFF;}
	.st1{font-family:'Avenir-Medium';}
	.st2{font-size:9.8541px;}
</style>
<g id="Arte">
	<g>
		<g>
			<path d="M59.93,39.4l-5.419-16.914c-0.287-0.924-1.129-1.529-2.094-1.529h-2.864V6.465c0-0.616-0.503-1.129-1.129-1.129H23.937
				c-0.626,0-1.129,0.513-1.129,1.129v14.492h-2.607c-0.955,0-1.796,0.606-2.094,1.519L12.688,39.4
				c-0.072,0.215-0.103,0.441-0.103,0.667v18.905h2.258l-0.01-16.77h42.952v16.77h2.258V40.068
				C60.043,39.842,60.002,39.616,59.93,39.4z M25.066,7.594h22.23v23.873h-22.23V7.594z M14.874,39.944l5.327-16.74h2.607v6.723
				h-1.016c-1.139,0-2.063,0.924-2.063,2.073c0,0.575,0.226,1.088,0.606,1.457c0.37,0.369,0.893,0.606,1.457,0.606H50.58
				c1.139,0,2.063-0.924,2.063-2.063c0-0.575-0.236-1.088-0.606-1.468c-0.369-0.38-0.883-0.606-1.457-0.606h-1.026v-6.753h2.812
				l5.378,16.77H14.874z"/>
		</g>
		<g>
			<path d="M35.199,15.823h-7.355c-0.623,0-1.129-0.505-1.129-1.129s0.505-1.129,1.129-1.129h7.355c0.623,0,1.129,0.505,1.129,1.129
				S35.822,15.823,35.199,15.823z"/>
		</g>
		<g>
			<path d="M39.303,18.423c-0.289,0-0.578-0.11-0.798-0.331c-0.441-0.44-0.441-1.156,0-1.596l5.201-5.201
				c0.439-0.441,1.157-0.441,1.596,0c0.441,0.44,0.441,1.156,0,1.596l-5.201,5.201C39.882,18.313,39.592,18.423,39.303,18.423z"/>
		</g>
		<g>
			<path d="M44.504,18.423c-0.289,0-0.578-0.11-0.798-0.331l-5.201-5.201c-0.441-0.44-0.441-1.156,0-1.596
				c0.439-0.441,1.157-0.441,1.596,0l5.201,5.201c0.441,0.44,0.441,1.156,0,1.596C45.083,18.313,44.793,18.423,44.504,18.423z"/>
		</g>
		<g>
			<path d="M35.199,25.862h-7.355c-0.623,0-1.129-0.505-1.129-1.129s0.505-1.129,1.129-1.129h7.355c0.623,0,1.129,0.505,1.129,1.129
				S35.822,25.862,35.199,25.862z"/>
		</g>
		<g>
			<path d="M44.504,28.462h-5.201c-0.623,0-1.129-0.505-1.129-1.129v-5.2c0-0.623,0.505-1.129,1.129-1.129h5.201
				c0.623,0,1.129,0.505,1.129,1.129v5.2C45.633,27.957,45.128,28.462,44.504,28.462z M40.432,26.205h2.944v-2.943h-2.944V26.205z"
				/>
		</g>
	</g>
</g>
<g id="Tipografía">
	<text transform="matrix(1 0 0 1 19.8039 71.9717)"><tspan x="0" y="0" class="st1 st2">VOTAR</tspan><tspan x="-4.912" y="11.825" class="st1 st2">MOCIÓN</tspan></text>
</g>
</svg>
