<?xml version="1.0" encoding="utf-8"?>
<!-- Generator: Adobe Illustrator 24.2.0, SVG Export Plug-In . SVG Version: 6.00 Build 0)  -->
<svg version="1.1" xmlns="http://www.w3.org/2000/svg" xmlns:xlink="http://www.w3.org/1999/xlink" x="0px" y="0px"
	 viewBox="0 0 72.628 89.24" style="enable-background:new 0 0 72.628 89.24;" xml:space="preserve">
<style type="text/css">
	.st0{fill:#FFFFFF;}
	.st1{font-family:'Avenir-Medium';}
	.st2{font-size:9.8541px;}
</style>
<g id="Arte">
	<g>
		<path d="M63.384,30.663c0,3.22-1.7,6.07-4.29,7.79c-0.46,10.81-10.17,16.21-10.59,16.44l-0.26,0.14h-4.27
			c-0.62,2.06-2.89,3.59-5.6,3.59c-3.19,0-5.78-2.12-5.78-4.74s2.59-4.74,5.78-4.74c2.71,0,4.99,1.53,5.6,3.6h3.67
			c1.36-0.83,8.05-5.29,9.06-13.12c-1.04,0.35-2.16,0.54-3.33,0.54c-0.39,0-1.16-0.65-1.16-0.95v-17.09c0-0.36,0.77-0.94,1.16-0.94
			c0.75,0,1.49,0.08,2.19,0.23c-3.08-7.62-10.55-13.01-19.25-13.01c-8.71,0-16.18,5.39-19.26,13.01c0.7-0.15,1.44-0.23,2.19-0.23
			c0.39,0,1.16,0.58,1.16,0.94v17.09c0,0.3-0.77,0.95-1.16,0.95c-5.52,0-10-4.26-10-9.5c0-3.56,2.07-6.66,5.13-8.28
			c2.9-9.36,11.64-16.18,21.94-16.18s19.03,6.82,21.93,16.18C61.304,24.003,63.384,27.103,63.384,30.663z"/>
	</g>
</g>
<g id="Tipografía">
	<text transform="matrix(1 0 0 1 13.6067 71.9717)" class="st1 st2">SOPORTE</text>
</g>
</svg>
