<?xml version="1.0" encoding="utf-8"?>
<!-- Generator: Adobe Illustrator 24.2.0, SVG Export Plug-In . SVG Version: 6.00 Build 0)  -->
<svg version="1.1" xmlns="http://www.w3.org/2000/svg" xmlns:xlink="http://www.w3.org/1999/xlink" x="0px" y="0px"
	 viewBox="0 0 72.628 89.24" style="enable-background:new 0 0 72.628 89.24;" xml:space="preserve">
<style type="text/css">
	.st0{fill:#FFFFFF;}
	.st1{font-family:'Avenir-Medium';}
	.st2{font-size:9.8541px;}
</style>
<g id="Arte">
	<g>
		<path d="M52.303,14.456c-0.776-0.815-1.869-1.253-3.152-1.253c-0.915,0-1.7,0.169-2.356,0.497v-0.437
			c0.01-0.249,0.099-2.476-1.322-3.987c-0.776-0.815-1.869-1.253-3.152-1.253c-0.994,0-1.849,0.199-2.545,0.597
			c-0.169-0.726-0.497-1.561-1.143-2.247c-0.776-0.825-1.859-1.253-3.142-1.253c-1.481,0-2.645,0.428-3.46,1.283
			c-1.094,1.163-1.104,2.625-1.094,2.854c-0.646-0.388-1.422-0.577-2.287-0.577c-1.481,0-2.645,0.428-3.45,1.283
			c-1.154,1.203-1.104,2.754-1.094,2.864v23.306c-2.257-2.844-4.773-5.926-5.349-6.324c-0.756-0.527-3.45-1.969-6.065,1.67
			c-1.491,2.098-0.298,5.17,0.964,7.388c0.338,0.587,1.153,2.048,2.108,3.748c1.73,3.102,3.888,6.95,4.494,7.974
			c1.064,1.77,6.314,8.382,12.568,8.382h8.094l0.079-0.01c0.129-0.02,12.628-2.078,12.628-12.946V18.443
			C53.635,18.194,53.725,15.967,52.303,14.456z M51.438,18.383v27.632c0,8.68-9.645,10.589-10.699,10.768h-7.915
			c-5.2,0-9.963-6.115-10.689-7.318c-0.597-0.994-2.744-4.832-4.464-7.915c-0.964-1.71-1.78-3.182-2.118-3.768
			c-1.302-2.277-1.71-4.156-1.084-5.021c1.402-1.959,2.406-1.591,3.013-1.183c0.457,0.388,3.212,3.758,5.598,6.791
			c0.636,0.815,1.313,1.153,1.999,0.984c0.716-0.169,1.084-0.815,1.193-1.362l0.02-0.099V12.775c0-0.07,0.01-0.795,0.487-1.303
			c0.388-0.408,1.014-0.617,1.869-0.617c0.686,0,1.193,0.189,1.551,0.567c0.616,0.646,0.736,1.76,0.736,2.297v15.392h2.187V9.216
			c0-0.07,0.01-0.795,0.497-1.303c0.378-0.408,1.004-0.607,1.869-0.607c0.676,0,1.183,0.179,1.551,0.567
			c0.656,0.686,0.746,1.939,0.726,2.416v13.194h0.01v5.886h2.187V12.119c0-0.06,0.01-0.795,0.487-1.303
			c0.388-0.398,1.014-0.607,1.869-0.607c0.686,0,1.193,0.179,1.551,0.567c0.666,0.686,0.756,1.939,0.736,2.416v17.649h2.187V17.299
			c0-0.06,0.01-0.795,0.487-1.303c0.388-0.398,1.014-0.607,1.869-0.607c0.686,0,1.193,0.179,1.551,0.567
			C51.368,16.643,51.458,17.896,51.438,18.383z"/>
	</g>
</g>
<g id="Tipografía">
	<text transform="matrix(1 0 0 1 11.4035 71.9717)"><tspan x="0" y="0" class="st1 st2">SOLICITAR</tspan><tspan x="-4.483" y="11.825" class="st1 st2">LA PALABRA</tspan></text>
</g>
</svg>
