<?xml version="1.0" encoding="utf-8"?>
<!-- Generator: Adobe Illustrator 24.2.0, SVG Export Plug-In . SVG Version: 6.00 Build 0)  -->
<svg version="1.1" xmlns="http://www.w3.org/2000/svg" xmlns:xlink="http://www.w3.org/1999/xlink" x="0px" y="0px"
	 viewBox="0 0 72.628 103.643" style="enable-background:new 0 0 72.628 103.643;" xml:space="preserve">
<style type="text/css">
	.st0{fill:#FFFFFF;}
	.st1{font-family:'Avenir-Medium';}
	.st2{font-size:9.8541px;}
</style>
<g id="Arte">
	<path d="M63.589,50.105c0-2.965-2.052-4.455-3.861-5.769c-1.637-1.188-3.05-2.214-3.05-4.193V28.708
		c0-10.555-8.075-19.257-18.372-20.261c0.001-0.028,0.008-0.055,0.008-0.083V7.202c0-1.104-0.896-2-2-2s-2,0.896-2,2v1.161
		c0,0.029,0.007,0.055,0.008,0.083c-10.297,1.005-18.371,9.706-18.371,20.261v11.435c0,1.979-1.414,3.005-3.05,4.193
		c-1.811,1.313-3.862,2.803-3.862,5.769v1.1h18.28c0.545,4.483,4.367,7.969,8.995,7.969s8.45-3.486,8.995-7.969h18.28V50.105z
		 M36.315,56.974c-3.412,0-6.244-2.504-6.773-5.77h13.545C42.559,54.469,39.727,56.974,36.315,56.974z M11.417,49.005
		c0.383-1.098,1.372-1.868,2.778-2.889c1.855-1.347,3.957-2.873,3.957-5.974V28.708c0-10.015,8.148-18.163,18.163-18.163
		c10.016,0,18.164,8.148,18.164,18.163v11.435c0,3.101,2.102,4.627,3.956,5.974c1.407,1.021,2.396,1.791,2.778,2.889H11.417z"/>
</g>
<g id="Tipografía">
	<text transform="matrix(1 0 0 1 12.2219 71.9717)"><tspan x="0" y="0" class="st1 st2">SEGUNDA</tspan><tspan x="0.458" y="11.825" class="st1 st2">LLAMADA</tspan><tspan x="-4.292" y="23.649" class="st1 st2">ASISTENCIA</tspan></text>
</g>
</svg>
