<?xml version="1.0" encoding="utf-8"?>
<!-- Generator: Adobe Illustrator 24.2.0, SVG Export Plug-In . SVG Version: 6.00 Build 0)  -->
<svg version="1.1" xmlns="http://www.w3.org/2000/svg" xmlns:xlink="http://www.w3.org/1999/xlink" x="0px" y="0px"
	 viewBox="0 0 72.628 89.24" style="enable-background:new 0 0 72.628 89.24;" xml:space="preserve">
<style type="text/css">
	.st0{fill:#FFFFFF;}
	.st1{font-family:'Avenir-Medium';}
	.st2{font-size:9.8541px;}
</style>
<g id="Arte">
	<g>
		<path d="M58.776,31.356V17.413c0-3.239-2.121-5.996-5.046-6.949v-2.21c0-1.727-1.408-3.135-3.138-3.135
			c-1.73,0-3.138,1.408-3.138,3.135v1.847h-1.869V8.254c0-1.727-1.405-3.135-3.135-3.135c-1.73,0-3.138,1.408-3.138,3.135v1.847
			h-1.869V8.254c0-1.727-1.408-3.135-3.138-3.135c-1.727,0-3.135,1.408-3.135,3.135v1.847h-1.869V8.254
			c0-1.727-1.408-3.135-3.138-3.135s-3.138,1.408-3.138,3.135v1.847h-1.869V8.254c0-1.727-1.405-3.135-3.135-3.135
			s-3.138,1.408-3.138,3.135v2.231c-2.892,0.974-4.982,3.71-4.982,6.927v25.312c0,4.032,3.282,7.315,7.315,7.315h22.131
			c2.176,5.24,7.348,8.931,13.369,8.931c7.981,0,14.472-6.491,14.472-14.472C67.19,38.677,63.739,33.649,58.776,31.356z
			 M49.605,8.254c0-0.541,0.443-0.983,0.987-0.983s0.987,0.443,0.987,0.983v4.638c0,0.544-0.443,0.987-0.987,0.987
			s-0.987-0.443-0.987-0.987V8.254z M41.463,8.254c0-0.541,0.443-0.983,0.987-0.983s0.983,0.443,0.983,0.983v4.638
			c0,0.544-0.439,0.987-0.983,0.987s-0.987-0.443-0.987-0.987V8.254z M33.322,8.254c0-0.541,0.443-0.983,0.983-0.983
			c0.544,0,0.987,0.443,0.987,0.983v4.638c0,0.544-0.443,0.987-0.987,0.987c-0.541,0-0.983-0.443-0.983-0.987V8.254z M25.178,8.254
			c0-0.541,0.443-0.983,0.987-0.983c0.544,0,0.987,0.443,0.987,0.983v4.638c0,0.544-0.443,0.987-0.987,0.987
			c-0.544,0-0.987-0.443-0.987-0.987V8.254z M17.036,8.254c0-0.541,0.443-0.983,0.987-0.983s0.983,0.443,0.983,0.983v4.638
			c0,0.544-0.439,0.987-0.983,0.987s-0.987-0.443-0.987-0.987C17.036,12.892,17.036,8.254,17.036,8.254z M12.055,17.413
			c0-2.007,1.153-3.749,2.831-4.601v0.08c0,1.73,1.408,3.138,3.138,3.138c1.73,0,3.135-1.408,3.135-3.138v-0.639h1.869v0.639
			c0,1.73,1.408,3.138,3.138,3.138s3.138-1.408,3.138-3.138v-0.639h1.869v0.639c0,1.73,1.408,3.138,3.135,3.138
			c1.73,0,3.138-1.408,3.138-3.138v-0.639h1.869v0.639c0,1.73,1.408,3.138,3.138,3.138s3.135-1.408,3.135-3.138v-0.639h1.869v0.639
			c0,1.73,1.408,3.138,3.138,3.138c1.73,0,3.138-1.408,3.138-3.138v-0.114c1.712,0.839,2.895,2.6,2.895,4.635v0.006h-44.57V17.413z
			 M17.218,47.888c-2.846,0-5.163-2.317-5.163-5.163V19.57h44.57v10.99c-1.242-0.347-2.554-0.535-3.906-0.535
			c-3.31,0-6.362,1.116-8.802,2.993c-0.194-0.283-0.519-0.467-0.888-0.467h-2.655c-0.593,0-1.076,0.479-1.076,1.076
			c0,0.593,0.483,1.076,1.076,1.076h1.703c-2.379,2.579-3.829,6.018-3.829,9.795c0,1.168,0.138,2.302,0.403,3.39H17.218z
			 M52.718,56.819c-4.804,0-8.974-2.76-11.003-6.78c-0.347-0.682-0.63-1.401-0.845-2.151c-0.307-1.076-0.473-2.216-0.473-3.39
			c0-6.795,5.526-12.321,12.321-12.321c1.365,0,2.68,0.224,3.906,0.636c0.753,0.252,1.472,0.575,2.151,0.959
			c3.737,2.118,6.263,6.131,6.263,10.726C65.039,51.293,59.513,56.819,52.718,56.819z"/>
		<g>
			<path d="M22.676,23.028c0,0.593-0.483,1.076-1.076,1.076h-2.655c-0.596,0-1.076-0.483-1.076-1.076
				c0-0.593,0.479-1.076,1.076-1.076H21.6C22.193,21.952,22.676,22.435,22.676,23.028z"/>
		</g>
		<g>
			<path d="M22.676,28.326c0,0.596-0.483,1.076-1.076,1.076h-2.655c-0.596,0-1.076-0.479-1.076-1.076
				c0-0.593,0.479-1.076,1.076-1.076H21.6C22.193,27.25,22.676,27.733,22.676,28.326z"/>
		</g>
		<g>
			<path d="M22.676,33.628c0,0.593-0.483,1.076-1.076,1.076h-2.655c-0.596,0-1.076-0.483-1.076-1.076
				c0-0.596,0.479-1.076,1.076-1.076H21.6C22.193,32.552,22.676,33.031,22.676,33.628z"/>
		</g>
		<g>
			<path d="M22.676,38.926c0,0.593-0.483,1.076-1.076,1.076h-2.655c-0.596,0-1.076-0.483-1.076-1.076s0.479-1.076,1.076-1.076H21.6
				C22.193,37.85,22.676,38.333,22.676,38.926z"/>
		</g>
		<g>
			<path d="M22.676,44.225c0,0.596-0.483,1.076-1.076,1.076h-2.655c-0.596,0-1.076-0.479-1.076-1.076
				c0-0.593,0.479-1.076,1.076-1.076H21.6C22.193,43.149,22.676,43.631,22.676,44.225z"/>
		</g>
		<g>
			<path d="M29.818,23.028c0,0.593-0.483,1.076-1.076,1.076h-2.655c-0.593,0-1.076-0.483-1.076-1.076
				c0-0.593,0.483-1.076,1.076-1.076h2.655C29.336,21.952,29.818,22.435,29.818,23.028z"/>
		</g>
		<g>
			<path d="M29.818,28.326c0,0.596-0.483,1.076-1.076,1.076h-2.655c-0.593,0-1.076-0.479-1.076-1.076
				c0-0.593,0.483-1.076,1.076-1.076h2.655C29.336,27.25,29.818,27.733,29.818,28.326z"/>
		</g>
		<g>
			<path d="M29.818,33.628c0,0.593-0.483,1.076-1.076,1.076h-2.655c-0.593,0-1.076-0.483-1.076-1.076
				c0-0.596,0.483-1.076,1.076-1.076h2.655C29.336,32.552,29.818,33.031,29.818,33.628z"/>
		</g>
		<g>
			<path d="M29.818,38.926c0,0.593-0.483,1.076-1.076,1.076h-2.655c-0.593,0-1.076-0.483-1.076-1.076s0.483-1.076,1.076-1.076h2.655
				C29.336,37.85,29.818,38.333,29.818,38.926z"/>
		</g>
		<g>
			<path d="M29.818,44.225c0,0.596-0.483,1.076-1.076,1.076h-2.655c-0.593,0-1.076-0.479-1.076-1.076
				c0-0.593,0.483-1.076,1.076-1.076h2.655C29.336,43.149,29.818,43.631,29.818,44.225z"/>
		</g>
		<g>
			<path d="M36.961,23.028c0,0.593-0.479,1.076-1.076,1.076H33.23c-0.593,0-1.076-0.483-1.076-1.076
				c0-0.593,0.483-1.076,1.076-1.076h2.655C36.481,21.952,36.961,22.435,36.961,23.028z"/>
		</g>
		<g>
			<path d="M36.961,28.326c0,0.596-0.479,1.076-1.076,1.076H33.23c-0.593,0-1.076-0.479-1.076-1.076
				c0-0.593,0.483-1.076,1.076-1.076h2.655C36.481,27.25,36.961,27.733,36.961,28.326z"/>
		</g>
		<g>
			<path d="M36.961,33.628c0,0.593-0.479,1.076-1.076,1.076H33.23c-0.593,0-1.076-0.483-1.076-1.076
				c0-0.596,0.483-1.076,1.076-1.076h2.655C36.481,32.552,36.961,33.031,36.961,33.628z"/>
		</g>
		<g>
			<path d="M36.961,38.926c0,0.593-0.479,1.076-1.076,1.076H33.23c-0.593,0-1.076-0.483-1.076-1.076s0.483-1.076,1.076-1.076h2.655
				C36.481,37.85,36.961,38.333,36.961,38.926z"/>
		</g>
		<g>
			<path d="M36.961,44.225c0,0.596-0.479,1.076-1.076,1.076H33.23c-0.593,0-1.076-0.479-1.076-1.076
				c0-0.593,0.483-1.076,1.076-1.076h2.655C36.481,43.149,36.961,43.631,36.961,44.225z"/>
		</g>
		<g>
			<path d="M44.103,23.028c0,0.593-0.479,1.076-1.076,1.076h-2.655c-0.593,0-1.076-0.483-1.076-1.076
				c0-0.593,0.483-1.076,1.076-1.076h2.655C43.624,21.952,44.103,22.435,44.103,23.028z"/>
		</g>
		<g>
			<path d="M44.103,28.326c0,0.596-0.479,1.076-1.076,1.076h-2.655c-0.593,0-1.076-0.479-1.076-1.076
				c0-0.593,0.483-1.076,1.076-1.076h2.655C43.624,27.25,44.103,27.733,44.103,28.326z"/>
		</g>
		<g>
			<path d="M45.259,44.071c0,0.596-0.483,1.076-1.076,1.076H42.45c-0.596,0-1.076-0.479-1.076-1.076
				c0-0.593,0.479-1.076,1.076-1.076h1.733C44.776,42.995,45.259,43.478,45.259,44.071z"/>
		</g>
		<g>
			<path d="M53.369,34.23v1.733c0,0.593-0.483,1.076-1.076,1.076c-0.596,0-1.076-0.483-1.076-1.076V34.23
				c0-0.596,0.479-1.076,1.076-1.076C52.887,33.154,53.369,33.634,53.369,34.23z"/>
		</g>
		<g>
			<path d="M64.065,44.925c0,0.593-0.483,1.076-1.076,1.076h-1.736c-0.593,0-1.076-0.483-1.076-1.076
				c0-0.596,0.483-1.076,1.076-1.076h1.736C63.582,43.85,64.065,44.329,64.065,44.925z"/>
		</g>
		<g>
			<path d="M54.221,53.033v1.733c0,0.596-0.483,1.076-1.076,1.076c-0.593,0-1.076-0.479-1.076-1.076v-1.733
				c0-0.593,0.483-1.076,1.076-1.076C53.738,51.957,54.221,52.44,54.221,53.033z"/>
		</g>
		<g>
			<path d="M51.246,23.028c0,0.593-0.479,1.076-1.076,1.076h-2.655c-0.593,0-1.076-0.483-1.076-1.076
				c0-0.593,0.483-1.076,1.076-1.076h2.655C50.766,21.952,51.246,22.435,51.246,23.028z"/>
		</g>
		<g>
			<path d="M51.246,28.326c0,0.596-0.479,1.076-1.076,1.076h-2.655c-0.593,0-1.076-0.479-1.076-1.076
				c0-0.593,0.483-1.076,1.076-1.076h2.655C50.766,27.25,51.246,27.733,51.246,28.326z"/>
		</g>
		<g>
			<path d="M56.839,47.654c-0.022,0.034-0.046,0.065-0.071,0.095c-0.034,0.043-0.074,0.083-0.114,0.12
				c-0.2,0.178-0.455,0.274-0.716,0.274c-0.203,0-0.406-0.058-0.587-0.175l-1.245-0.811h-0.003l-2.339-1.527l-2.182-5.95
				c-0.206-0.556,0.08-1.174,0.636-1.38c0.559-0.203,1.177,0.083,1.383,0.639l1.936,5.28l2.179,1.423l0.808,0.526
				C57.024,46.49,57.165,47.157,56.839,47.654z"/>
		</g>
	</g>
</g>
<g id="Tipografía">
	<text transform="matrix(1 0 0 1 5.1612 71.9717)"><tspan x="0" y="0" class="st1 st2">AGENDA DE</tspan><tspan x="3.104" y="11.825" class="st1 st2">ASAMBLEA</tspan></text>
</g>
</svg>
