<?xml version="1.0" encoding="utf-8"?>
<!-- Generator: Adobe Illustrator 24.2.0, SVG Export Plug-In . SVG Version: 6.00 Build 0)  -->
<svg version="1.1" xmlns="http://www.w3.org/2000/svg" xmlns:xlink="http://www.w3.org/1999/xlink" x="0px" y="0px"
	 viewBox="0 0 72.628 89.24" style="enable-background:new 0 0 72.628 89.24;" xml:space="preserve">
<style type="text/css">
	.st0{fill:#FFFFFF;}
	.st1{font-family:'Avenir-Medium';}
	.st2{font-size:9.8541px;}
</style>
<g id="Arte">
	<g>
		<g>
			<path d="M61.31,34.833l-0.69-0.69c0.63-0.63,0.63-1.65,0-2.28c-0.63-0.64-1.65-0.64-2.29,0l-0.67-0.67
				c-0.52-0.53-1.37-0.53-1.89,0l-2.12,2.12v-14.48c0-2.78-2.27-5.04-5.05-5.04H46c-0.55-4.86-4.68-8.65-9.69-8.65
				c-5,0-9.13,3.79-9.68,8.65h-2.6c-2.78,0-5.05,2.26-5.05,5.04v35.19c0,2.78,2.27,5.05,5.05,5.05H48.6c2.78,0,5.05-2.27,5.05-5.05
				v-9.68l5.01-5.01c0.32,0.33,0.32,0.85-0.01,1.17l-4.7,4.71c-0.25,0.25-0.26,0.66,0,0.92c0.25,0.25,0.67,0.25,0.92,0l4.7-4.7
				c0.83-0.83,0.83-2.18,0.01-3.02l1.73-1.73C61.82,36.173,61.82,35.343,61.31,34.833z M28.86,13.793c0.52-3.64,3.66-6.45,7.45-6.45
				c2.84,0,5.32,1.58,6.61,3.91l-2.54,2.54l-2.18,2.19l-1.83,1.83l-3.7-3.7c-0.22-0.21-0.5-0.32-0.78-0.32
				c-0.28,0-0.56,0.11-0.78,0.32c-0.43,0.43-0.43,1.12,0,1.55l0.32,0.32l4.94,4.94l4.93-4.94l2.19-2.19l0.25-0.24
				c0.01,0.08,0.03,0.16,0.03,0.24c0.06,0.36,0.09,0.73,0.09,1.1s-0.03,0.74-0.09,1.09c-0.52,3.64-3.67,6.45-7.46,6.45
				c-3.79,0-6.93-2.81-7.45-6.45c-0.06-0.35-0.09-0.72-0.09-1.09S28.8,14.153,28.86,13.793z M51.45,54.023
				c0,1.57-1.28,2.85-2.85,2.85H24.03c-1.57,0-2.85-1.28-2.85-2.85v-35.19c0-1.57,1.28-2.85,2.85-2.85h2.6
				c0.54,4.86,4.68,8.65,9.68,8.65c5.01,0,9.15-3.79,9.69-8.65h2.6c1.57,0,2.85,1.28,2.85,2.85v16.68l-11.19,11.19
				c-0.47,0.47-0.85,1.02-1.1,1.61c-0.24,0.57-0.39,1.18-0.43,1.81l-0.14,2.56c-0.02,0.33,0.11,0.64,0.33,0.87
				c0.24,0.24,0.56,0.36,0.88,0.34l2.76-0.15c0.5-0.03,0.99-0.14,1.45-0.33c0.61-0.23,1.16-0.59,1.63-1.06l5.81-5.81V54.023z
				 M53.65,42.263l-2.2,2.21l-6.922,6.922l-3.44-3.44L51.45,37.603l2.2-2.2l1.235-1.235l3.43,3.43L53.65,42.263z M59.83,33.353
				c-0.19,0.19-0.51,0.19-0.7,0c-0.19-0.19-0.19-0.51,0-0.7s0.51-0.19,0.7,0C60.02,32.843,60.02,33.163,59.83,33.353z"/>
		</g>
		<g>
			<path d="M34.684,54.317c-1.215,0-1.941-1.26-2.252-1.798l-0.072-0.123c-0.147-0.239-0.235-0.349-0.29-0.37
				c0.002,0.003-0.186,0.032-0.556,0.462c-1.125,1.307-1.968,2.093-3.364,1.134l-0.259-0.184c-0.532-0.388-0.612-0.445-1.376,0.272
				c-0.301,0.284-0.775,0.271-1.06-0.032c-0.284-0.302-0.27-0.776,0.032-1.06c1.544-1.451,2.437-1.014,3.287-0.393l0.223,0.158
				c0.215,0.147,0.285,0.162,0.297,0.164c0.078-0.016,0.337-0.173,1.083-1.039c0.6-0.697,1.204-1.025,1.821-0.977
				c0.816,0.065,1.247,0.767,1.409,1.031l0.123,0.205c0.5,0.866,0.794,1.048,0.953,1.048c0.523,0,0.926-0.431,0.93-0.436
				c0.278-0.302,0.752-0.326,1.057-0.053c0.306,0.275,0.335,0.742,0.063,1.051C36.65,53.475,35.873,54.317,34.684,54.317z"/>
		</g>
		<g>
			<path d="M32.674,47.563h-6.673c-0.414,0-0.75-0.336-0.75-0.75s0.336-0.75,0.75-0.75h6.673c0.414,0,0.75,0.336,0.75,0.75
				S33.088,47.563,32.674,47.563z"/>
		</g>
		<g>
			<path d="M40.638,43.33H26.001c-0.414,0-0.75-0.336-0.75-0.75s0.336-0.75,0.75-0.75h14.637c0.414,0,0.75,0.336,0.75,0.75
				S41.052,43.33,40.638,43.33z"/>
		</g>
		<g>
			<path d="M44.739,39.098H26.001c-0.414,0-0.75-0.336-0.75-0.75s0.336-0.75,0.75-0.75h18.737c0.414,0,0.75,0.336,0.75,0.75
				S45.153,39.098,44.739,39.098z"/>
		</g>
		<g>
			<path d="M46.628,34.865H26.001c-0.414,0-0.75-0.336-0.75-0.75s0.336-0.75,0.75-0.75h20.627c0.414,0,0.75,0.336,0.75,0.75
				S47.042,34.865,46.628,34.865z"/>
		</g>
		<g>
			<path d="M46.628,30.632H26.001c-0.414,0-0.75-0.336-0.75-0.75s0.336-0.75,0.75-0.75h20.627c0.414,0,0.75,0.336,0.75,0.75
				S47.042,30.632,46.628,30.632z"/>
		</g>
	</g>
</g>
<g id="Tipografía">
	<text transform="matrix(1 0 0 1 9.3197 71.9717)"><tspan x="0" y="0" class="st1 st2">PROPONER</tspan><tspan x="5.572" y="11.825" class="st1 st2">MOCIÓN</tspan></text>
</g>
</svg>
