<?xml version="1.0" encoding="utf-8"?>
<!-- Generator: Adobe Illustrator 24.2.0, SVG Export Plug-In . SVG Version: 6.00 Build 0)  -->
<svg version="1.1" xmlns="http://www.w3.org/2000/svg" xmlns:xlink="http://www.w3.org/1999/xlink" x="0px" y="0px"
	 viewBox="0 0 72.628 89.24" style="enable-background:new 0 0 72.628 89.24;" xml:space="preserve">
<style type="text/css">
	.st0{fill:#FFFFFF;}
	.st1{font-family:'Avenir-Medium';}
	.st2{font-size:9.8541px;}
</style>
<g id="Arte">
	<g>
		<g>
			<path d="M41.125,20.533l0.01,0.01c0-0.03,0.01-0.06,0.02-0.08C41.145,20.493,41.135,20.513,41.125,20.533z"/>
		</g>
		<g>
			<path d="M26.735,34.233c-0.05,0.07-0.1,0.13-0.16,0.18v-0.18H26.735z"/>
		</g>
		<g>
			<path d="M32.515,33.103h-0.11v-0.04C32.445,33.083,32.475,33.093,32.515,33.103z"/>
		</g>
		<g>
			<rect x="26.575" y="30.903" width="0.97" height="2.2"/>
		</g>
		<g>
			<path d="M47.155,10.043v-4.94h-24.43v4.94h-12.55v34.65h4.73v6.74h2.2v-8.94h-4.73v-30.25h10.35v1.2
				c-0.11-0.01-0.23-0.01-0.34-0.01c-5,0-9.07,4.07-9.07,9.07c0,1.92,0.6,3.7,1.62,5.16c0.49,0.72,1.09,1.36,1.77,1.91
				c1.56,1.25,3.53,2,5.68,2c0.11,0,0.23,0,0.34-0.01v8.19h3.23v2.74h-4.53v5.9h2.2v-3.7h2.33v1.03c-0.03,0.31-0.04,1.36,0.66,2.24
				c0.38,0.49,1.27,1.76,1.66,2.32v2.73h-1.58v5.87h16.55v-5.87h-1.81v-2.63c0.29-0.36,0.8-1.02,1.35-1.82
				c0.99-1.42,1.02-3,1.02-3.18v-0.69h2.67v3.7h2.2v-5.9h-4.87v-2.74h3.35v-8.2c0.19,0.01,0.37,0.02,0.56,0.02
				c2.15,0,4.12-0.75,5.68-2c0.68-0.55,1.28-1.19,1.77-1.91c1.02-1.46,1.62-3.24,1.62-5.16c0-5-4.07-9.07-9.07-9.07
				c-0.19,0-0.37,0.01-0.56,0.02v-1.21h10.58v30.25h-4.74v8.94h2.2v-6.74h4.73v-34.65H47.155z M22.725,29.353
				c-0.11,0.02-0.22,0.02-0.34,0.02c-1.89,0-3.6-0.77-4.84-2c1.02-1.6,2.81-2.66,4.84-2.66c0.11,0,0.23,0,0.34,0.02V29.353z
				 M22.725,21.353c-0.11,0.03-0.22,0.05-0.34,0.05c-0.67,0-1.22-0.55-1.22-1.23c0-0.67,0.55-1.23,1.22-1.23
				c0.12,0,0.23,0.02,0.34,0.06V21.353z M22.725,16.773c-0.11-0.01-0.23-0.02-0.34-0.02c-1.89,0-3.42,1.53-3.42,3.42
				c0,1.06,0.48,2.02,1.24,2.64c-1.6,0.46-2.99,1.4-4.01,2.66c-0.44-0.9-0.68-1.9-0.68-2.97c0-3.79,3.09-6.87,6.87-6.87
				c0.12,0,0.23,0,0.34,0.02V16.773z M41.045,56.683h-12.15v-1.47h12.15V56.683z M41.605,45.373c0,0.02-0.02,1.07-0.63,1.94
				c-0.78,1.13-1.48,1.96-1.49,1.97l-0.25,0.31v3.42h-8.76v-3.41l-0.2-0.29c-0.05-0.08-1.4-2.02-1.93-2.71
				c-0.19-0.24-0.21-0.61-0.2-0.71v-6.14h0.94v4.59h2.2v-4.59h1.12v4.59h2.2v-4.59h1.91c-0.09,0.1-0.16,0.2-0.24,0.31
				c-0.39,0.58-0.63,1.41-0.78,2.2c-0.2,1.07-0.23,2.09-0.23,2.39h0.23l1.96,0.04c0.01-0.63,0.09-1.51,0.24-2.25
				c0.1-0.48,0.23-0.9,0.4-1.14c0.24-0.37,0.55-0.65,0.86-0.92c0.21-0.19,0.44-0.39,0.63-0.63c0.32-0.38,0.57-0.84,0.57-1.44v-3.08
				l-2.15-2.36l-0.27-0.3c-0.01-0.03-0.03-0.07-0.04-0.12c-0.06-0.17-0.1-0.43,0-0.68c0.02-0.07,0.06-0.15,0.12-0.22
				c0.11-0.14,0.22-0.2,0.38-0.2c0.32-0.03,0.66,0.18,0.73,0.25c0.1,0.11,0.26,0.29,0.46,0.52c0.23,0.27,0.52,0.59,0.79,0.9
				c0.56,0.64,1.08,1.23,1.09,1.24c0.02,0.04,0.34,0.5,0.34,1.22V45.373z M44.955,37.553h-1.15v-2.07c0-0.32-0.03-0.61-0.09-0.87
				c-0.18-0.98-0.64-1.6-0.74-1.73c0,0-0.37-0.42-0.82-0.94c-0.37-0.42-0.8-0.91-1.14-1.29c-0.2-0.23-0.36-0.41-0.46-0.52
				c-0.18-0.2-0.44-0.41-0.75-0.57c-0.17-0.09-0.35-0.18-0.55-0.24c-0.35-0.12-0.73-0.19-1.13-0.17c-0.15,0.01-0.29,0.02-0.43,0.05
				c-0.63,0.12-1.19,0.46-1.6,0.98c-0.28,0.35-0.46,0.72-0.55,1.08l-0.05,0.17c-0.1,0.47-0.08,0.93,0,1.33
				c0.05,0.26,0.13,0.49,0.21,0.68h0.01c0.04,0.12,0.1,0.22,0.15,0.31l1.83,2.05l0.26,0.29l0.01,1.46h-13.04V7.303h20.03V37.553z
				 M47.155,19.083c0.17-0.09,0.36-0.14,0.56-0.14c0.68,0,1.23,0.56,1.23,1.23c0,0.68-0.55,1.23-1.23,1.23
				c-0.2,0-0.39-0.05-0.56-0.14V19.083z M47.715,29.373c-0.19,0-0.38-0.01-0.56-0.03v-4.6c0.18-0.02,0.37-0.03,0.56-0.03
				c2.04,0,3.83,1.06,4.84,2.66C51.305,28.613,49.595,29.373,47.715,29.373z M47.715,15.633c3.79,0,6.87,3.08,6.87,6.87
				c0,1.07-0.24,2.07-0.68,2.97c-1.02-1.26-2.42-2.2-4.02-2.66c0.77-0.62,1.26-1.57,1.26-2.64c0-1.89-1.54-3.42-3.43-3.42
				c-0.19,0-0.38,0.02-0.56,0.05v-1.14C47.335,15.643,47.525,15.633,47.715,15.633z"/>
		</g>
		<g>
			<path d="M27.505,33.103h0.04v-0.08C27.535,33.053,27.525,33.073,27.505,33.103z M27.505,33.103h0.04v-0.08
				C27.535,33.053,27.525,33.073,27.505,33.103z M27.505,33.103h0.04v-0.08C27.535,33.053,27.525,33.073,27.505,33.103z
				 M27.505,33.103h0.04v-0.08C27.535,33.053,27.525,33.073,27.505,33.103z M27.505,33.103h0.04v-0.08
				C27.535,33.053,27.525,33.073,27.505,33.103z M27.505,33.103h0.04v-0.08C27.535,33.053,27.525,33.073,27.505,33.103z
				 M27.505,33.103h0.04v-0.08C27.535,33.053,27.525,33.073,27.505,33.103z M27.505,33.103h0.04v-0.08
				C27.535,33.053,27.525,33.073,27.505,33.103z M27.505,33.103h0.04v-0.08C27.535,33.053,27.525,33.073,27.505,33.103z
				 M27.505,33.103h0.04v-0.08C27.535,33.053,27.525,33.073,27.505,33.103z M27.505,33.103h0.04v-0.08
				C27.535,33.053,27.525,33.073,27.505,33.103z M27.505,33.103h0.04v-0.08C27.535,33.053,27.525,33.073,27.505,33.103z
				 M27.505,33.103h0.04v-0.08C27.535,33.053,27.525,33.073,27.505,33.103z"/>
			<path d="M34.205,34.233v2.2h-7.63v-2.02c0.06-0.05,0.11-0.11,0.16-0.18H34.205z"/>
		</g>
		<g>
			<rect x="14.023" y="39.176" width="7.637" height="2.199"/>
		</g>
		<g>
			<rect x="14.025" y="36.023" width="7.63" height="2.2"/>
		</g>
		<g>
			<rect x="48.216" y="39.176" width="7.637" height="2.199"/>
		</g>
		<g>
			<rect x="48.215" y="36.023" width="7.64" height="2.2"/>
		</g>
		<g>
			<rect x="46.478" y="53.788" width="2.199" height="5.182"/>
		</g>
		<g>
			<rect x="46.478" y="50.029" width="2.199" height="1.635"/>
		</g>
		<g>
			<polygon points="37.455,44.693 35.495,44.693 35.495,44.653 			"/>
		</g>
		<g>
			<rect x="52.998" y="53.461" width="2.199" height="1.438"/>
		</g>
		<g>
			<rect x="52.998" y="57.123" width="2.199" height="1.847"/>
		</g>
		<g>
			<rect x="49.738" y="43.591" width="2.199" height="15.379"/>
		</g>
		<g>
			<rect x="21.425" y="53.788" width="2.199" height="5.182"/>
		</g>
		<g>
			<rect x="21.425" y="50.029" width="2.199" height="1.635"/>
		</g>
		<g>
			<path d="M34.205,30.903v2.2h-1.69c-0.04-0.01-0.07-0.02-0.11-0.04v0.04h-3.03v-2.2H34.205z"/>
			<path d="M32.515,33.103h-0.11v-0.04C32.445,33.083,32.475,33.093,32.515,33.103z"/>
		</g>
		<g>
			<rect x="14.906" y="53.461" width="2.199" height="1.438"/>
		</g>
		<g>
			<rect x="14.906" y="57.123" width="2.199" height="1.847"/>
		</g>
		<g>
			<rect x="18.166" y="43.591" width="2.199" height="15.379"/>
		</g>
		<g>
			<path d="M41.125,20.533l0.01,0.01c0-0.03,0.01-0.06,0.02-0.08C41.145,20.493,41.135,20.513,41.125,20.533z M41.125,20.533
				l0.01,0.01c0-0.03,0.01-0.06,0.02-0.08C41.145,20.493,41.135,20.513,41.125,20.533z M41.125,20.533l0.01,0.01
				c0-0.03,0.01-0.06,0.02-0.08C41.145,20.493,41.135,20.513,41.125,20.533z M41.125,20.533l0.01,0.01c0-0.03,0.01-0.06,0.02-0.08
				C41.145,20.493,41.135,20.513,41.125,20.533z M41.125,20.533l0.01,0.01c0-0.03,0.01-0.06,0.02-0.08
				C41.145,20.493,41.135,20.513,41.125,20.533z M41.125,20.533l0.01,0.01c0-0.03,0.01-0.06,0.02-0.08
				C41.145,20.493,41.135,20.513,41.125,20.533z M41.125,20.533l0.01,0.01c0-0.03,0.01-0.06,0.02-0.08
				C41.145,20.493,41.135,20.513,41.125,20.533z M41.125,20.533l0.01,0.01c0-0.03,0.01-0.06,0.02-0.08
				C41.145,20.493,41.135,20.513,41.125,20.533z M41.125,20.533l0.01,0.01c0-0.03,0.01-0.06,0.02-0.08
				C41.145,20.493,41.135,20.513,41.125,20.533z M41.125,20.533l0.01,0.01c0-0.03,0.01-0.06,0.02-0.08
				C41.145,20.493,41.135,20.513,41.125,20.533z M41.125,20.533l0.01,0.01c0-0.03,0.01-0.06,0.02-0.08
				C41.145,20.493,41.135,20.513,41.125,20.533z M41.125,20.533l0.01,0.01c0-0.03,0.01-0.06,0.02-0.08
				C41.145,20.493,41.135,20.513,41.125,20.533z M41.125,20.533l0.01,0.01c0-0.03,0.01-0.06,0.02-0.08
				C41.145,20.493,41.135,20.513,41.125,20.533z M41.125,20.533l0.01,0.01c0-0.03,0.01-0.06,0.02-0.08
				C41.145,20.493,41.135,20.513,41.125,20.533z M41.125,20.533l0.01,0.01c0-0.03,0.01-0.06,0.02-0.08
				C41.145,20.493,41.135,20.513,41.125,20.533z M41.125,20.533l0.01,0.01c0-0.03,0.01-0.06,0.02-0.08
				C41.145,20.493,41.135,20.513,41.125,20.533z M41.125,20.533l0.01,0.01c0-0.03,0.01-0.06,0.02-0.08
				C41.145,20.493,41.135,20.513,41.125,20.533z M41.125,20.533l0.01,0.01c0-0.03,0.01-0.06,0.02-0.08
				C41.145,20.493,41.135,20.513,41.125,20.533z M41.125,20.533l0.01,0.01c0-0.03,0.01-0.06,0.02-0.08
				C41.145,20.493,41.135,20.513,41.125,20.533z M41.125,20.533l0.01,0.01c0-0.03,0.01-0.06,0.02-0.08
				C41.145,20.493,41.135,20.513,41.125,20.533z M41.125,20.533l0.01,0.01c0-0.03,0.01-0.06,0.02-0.08
				C41.145,20.493,41.135,20.513,41.125,20.533z M41.125,20.533l0.01,0.01c0-0.03,0.01-0.06,0.02-0.08
				C41.145,20.493,41.135,20.513,41.125,20.533z M41.125,20.533l0.01,0.01c0-0.03,0.01-0.06,0.02-0.08
				C41.145,20.493,41.135,20.513,41.125,20.533z M41.125,20.533l0.01,0.01c0-0.03,0.01-0.06,0.02-0.08
				C41.145,20.493,41.135,20.513,41.125,20.533z M41.125,20.533l0.01,0.01c0-0.03,0.01-0.06,0.02-0.08
				C41.145,20.493,41.135,20.513,41.125,20.533z"/>
			<path d="M43.965,16.753c-0.07-0.78-0.24-1.54-0.49-2.26c-0.3-0.81-0.7-1.57-1.21-2.25c-0.61-0.86-1.38-1.61-2.26-2.2
				c-1.45-0.98-3.2-1.55-5.07-1.55c-1.87,0-3.62,0.57-5.07,1.55c-0.88,0.59-1.65,1.34-2.26,2.2c-0.49,0.65-0.88,1.38-1.17,2.15
				c-0.26,0.71-0.44,1.46-0.52,2.23c-0.03,0.31-0.05,0.62-0.05,0.94c0,1.92,0.6,3.7,1.62,5.16c0.43,0.62,0.94,1.18,1.5,1.67
				c0.09,0.08,0.18,0.15,0.27,0.23c0.5,0.4,1.05,0.75,1.63,1.04c0.48,0.25,0.99,0.45,1.52,0.59c0.7,0.22,1.44,0.34,2.2,0.36
				c0.11,0.01,0.22,0.01,0.33,0.01c0.19,0,0.37-0.01,0.56-0.02c0.76-0.04,1.5-0.19,2.2-0.41c0.52-0.17,1.01-0.38,1.48-0.63
				c0.51-0.27,0.99-0.58,1.44-0.94c0.16-0.13,0.31-0.26,0.46-0.4c0.49-0.44,0.93-0.95,1.31-1.5c1.02-1.46,1.62-3.24,1.62-5.16
				C44.005,17.293,43.995,17.023,43.965,16.753z M38.685,23.313c-0.31,0.21-0.64,0.39-0.99,0.54c-0.68,0.3-1.42,0.49-2.2,0.55
				c-0.18,0.02-0.37,0.03-0.56,0.03c-0.11,0-0.22,0-0.33-0.02c-0.77-0.03-1.52-0.19-2.2-0.47c-0.35-0.13-0.69-0.3-1-0.5
				c-0.48-0.28-0.92-0.62-1.31-1.01c0.33-0.54,0.75-1.01,1.24-1.4c0.33-0.26,0.69-0.49,1.07-0.67c0.67-0.34,1.41-0.55,2.2-0.58
				c0.11-0.02,0.22-0.02,0.33-0.02c0.19,0,0.38,0.01,0.56,0.03c0.79,0.07,1.54,0.31,2.2,0.68c0.38,0.2,0.72,0.45,1.04,0.74
				c0.41,0.34,0.76,0.76,1.04,1.22C39.445,22.763,39.075,23.053,38.685,23.313z M33.715,15.233c0-0.56,0.38-1.04,0.89-1.18
				c0.11-0.03,0.22-0.05,0.33-0.05c0.2,0,0.39,0.05,0.56,0.14c0.4,0.2,0.67,0.61,0.67,1.09c0,0.47-0.27,0.89-0.67,1.09
				c-0.17,0.09-0.36,0.14-0.56,0.14c-0.11,0-0.22-0.02-0.33-0.06C34.095,16.273,33.715,15.793,33.715,15.233z M41.495,19.603v0.01
				c-0.09,0.29-0.2,0.57-0.34,0.84c0,0,0,0,0,0.01c-0.01,0.02-0.02,0.05-0.02,0.08l-0.01-0.01c-0.5-0.62-1.08-1.16-1.74-1.6
				c-0.52-0.36-1.09-0.65-1.69-0.87c-0.19-0.07-0.38-0.14-0.58-0.19c0.22-0.18,0.42-0.39,0.58-0.62c0.43-0.56,0.67-1.26,0.67-2.02
				c0-0.76-0.24-1.46-0.67-2.02c-0.51-0.71-1.3-1.21-2.2-1.36c-0.18-0.03-0.37-0.05-0.56-0.05c-0.11,0-0.22,0.01-0.33,0.02
				c-0.87,0.08-1.65,0.49-2.2,1.11c-0.56,0.61-0.89,1.41-0.89,2.3c0,0.89,0.33,1.69,0.89,2.3c0.11,0.12,0.23,0.23,0.35,0.34
				c-0.12,0.03-0.23,0.07-0.35,0.11c-0.62,0.2-1.2,0.48-1.74,0.83c-0.66,0.42-1.25,0.94-1.76,1.53c-0.06,0.06-0.11,0.13-0.16,0.19
				c-0.26-0.53-0.45-1.09-0.56-1.69c-0.08-0.41-0.12-0.84-0.12-1.28c0-0.66,0.09-1.3,0.27-1.9c0.39-1.36,1.19-2.55,2.26-3.42
				c1.11-0.9,2.5-1.47,4.01-1.53c0.11-0.02,0.22-0.02,0.33-0.02c0.19,0,0.38,0.01,0.56,0.03c1.42,0.11,2.73,0.66,3.78,1.52
				c1.11,0.91,1.94,2.16,2.3,3.59c0.15,0.55,0.23,1.13,0.23,1.73C41.805,18.273,41.695,18.953,41.495,19.603z"/>
		</g>
	</g>
</g>
<g id="Tipografía">
	<text transform="matrix(1 0 0 1 9.3196 71.9717)"><tspan x="0" y="0" class="st1 st2">PROPONER</tspan><tspan x="-2.932" y="11.825" class="st1 st2">CANDIDATO</tspan></text>
</g>
</svg>
