<?xml version="1.0" encoding="utf-8"?>
<!-- Generator: Adobe Illustrator 24.2.0, SVG Export Plug-In . SVG Version: 6.00 Build 0)  -->
<svg version="1.1" xmlns="http://www.w3.org/2000/svg" xmlns:xlink="http://www.w3.org/1999/xlink" x="0px" y="0px"
	 viewBox="0 0 72.628 89.24" style="enable-background:new 0 0 72.628 89.24;" xml:space="preserve">
<style type="text/css">
	.st0{fill:#FFFFFF;}
	.st1{font-family:'Avenir-Medium';}
	.st2{font-size:9.8541px;}
</style>
<g id="Arte">
	<g>
		<g>
			<path d="M33.248,19.282l-6.56-6.56c-0.586-0.586-0.586-1.535,0-2.121s1.535-0.586,2.121,0l4.438,4.438l9.575-9.576
				c0.586-0.586,1.535-0.586,2.121,0s0.586,1.535,0,2.121L33.248,19.282z"/>
		</g>
		<g>
			<path d="M55.089,18.661c-0.384,0-0.768-0.146-1.061-0.439c-0.586-0.586-0.586-1.535,0-2.121L64.664,5.464
				c0.586-0.586,1.535-0.586,2.121,0s0.586,1.535,0,2.121L56.15,18.222C55.857,18.515,55.473,18.661,55.089,18.661z"/>
		</g>
		<g>
			<path d="M65.725,18.661c-0.384,0-0.768-0.146-1.061-0.439L54.029,7.585c-0.586-0.586-0.586-1.535,0-2.121s1.535-0.586,2.121,0
				l10.636,10.637c0.586,0.586,0.586,1.535,0,2.121C66.493,18.515,66.109,18.661,65.725,18.661z"/>
		</g>
		<path d="M42.138,37.941c0,3.216-2.607,7.835-5.824,7.835s-5.824-4.618-5.824-7.835c0-3.216,2.607-5.824,5.824-5.824
			S42.138,34.725,42.138,37.941z"/>
		<path d="M46.34,58.97H26.666c-1.459,0-2.641-1.182-2.641-2.641v-3.785c0-1.232,0.764-2.334,1.918-2.766l6.454-2.417
			c0.028-0.01,0.059-0.002,0.078,0.021l3.787,4.528c0.028,0.033,0.079,0.033,0.107,0l3.787-4.528
			c0.019-0.023,0.05-0.031,0.078-0.021l6.545,2.451c1.098,0.411,1.826,1.461,1.826,2.634v4.26
			C48.604,57.957,47.59,58.97,46.34,58.97z"/>
		<path d="M64.579,36.289c0,2.304-1.868,5.613-4.172,5.613s-4.172-3.308-4.172-5.613s1.868-4.172,4.172-4.172
			S64.579,33.985,64.579,36.289z"/>
		<path d="M67.589,51.354H53.495c-1.045,0-1.892-0.847-1.892-1.892V46.75c0-0.882,0.547-1.672,1.374-1.981l4.623-1.731
			c0.02-0.007,0.042-0.002,0.056,0.015l2.713,3.244c0.02,0.024,0.057,0.024,0.077,0l2.713-3.244
			c0.014-0.016,0.036-0.022,0.056-0.015l4.689,1.756c0.787,0.295,1.308,1.047,1.308,1.887v3.052
			C69.211,50.628,68.485,51.354,67.589,51.354z"/>
		<g>
			<path d="M17.539,18.661c-0.384,0-0.768-0.146-1.061-0.439L5.842,7.585c-0.586-0.586-0.586-1.535,0-2.121s1.535-0.586,2.121,0
				L18.6,16.101c0.586,0.586,0.586,1.535,0,2.121C18.307,18.515,17.923,18.661,17.539,18.661z"/>
		</g>
		<g>
			<path d="M6.903,18.661c-0.384,0-0.768-0.146-1.061-0.439c-0.586-0.586-0.586-1.535,0-2.121L16.479,5.464
				c0.586-0.586,1.535-0.586,2.121,0s0.586,1.535,0,2.121L7.963,18.222C7.67,18.515,7.287,18.661,6.903,18.661z"/>
		</g>
		<path d="M8.049,36.289c0,2.304,1.868,5.613,4.172,5.613s4.172-3.308,4.172-5.613s-1.868-4.172-4.172-4.172
			S8.049,33.985,8.049,36.289z"/>
		<path d="M5.039,51.354h14.094c1.045,0,1.892-0.847,1.892-1.892V46.75c0-0.882-0.547-1.672-1.374-1.981l-4.623-1.731
			c-0.02-0.007-0.042-0.002-0.056,0.015l-2.713,3.244c-0.02,0.024-0.057,0.024-0.077,0L9.47,43.053
			c-0.014-0.016-0.036-0.022-0.056-0.015l-4.689,1.756c-0.787,0.295-1.308,1.047-1.308,1.887v3.052
			C3.417,50.628,4.143,51.354,5.039,51.354z"/>
	</g>
</g>
<g id="Tipografía">
	<text transform="matrix(1 0 0 1 19.804 71.9717)"><tspan x="0" y="0" class="st1 st2">VOTAR</tspan><tspan x="-8.396" y="11.825" class="st1 st2">ELECCIÓN</tspan></text>
</g>
</svg>
